<svg width="128" height="33" viewBox="0 0 128 33" fill="none" xmlns="http://www.w3.org/2000/svg">
<g clip-path="url(#clip0_0_1018)">
<path fill-rule="evenodd" clip-rule="evenodd" d="M16.5139 25.3979L13.9009 28.0109C15.9565 29.2128 18.343 29.8922 20.9037 29.8922C23.4469 29.8922 25.8509 29.2128 27.9064 28.0109L25.2934 25.3979C23.9695 26.025 22.4714 26.3734 20.9037 26.3734C19.3359 26.356 17.8552 26.0076 16.5139 25.3979ZM7.38597 0L14.9287 7.54273C11.4273 10.0163 9.80731 14.4061 10.8525 18.552C11.0093 19.1965 11.2357 19.8062 11.5144 20.3985L8.90149 23.0114C8.58793 22.4714 8.30922 21.914 8.06534 21.3391C6.16659 16.7578 6.8808 11.4447 9.91183 7.52531L7.40339 5.01688C2.21232 11.3751 2.21232 20.6598 7.40339 27.018C11.8977 22.5237 16.4094 18.012 20.9037 13.5177C25.3979 18.012 29.9096 22.5237 34.4039 27.018C39.595 20.6598 39.595 11.3751 34.4039 5.01688L31.8955 7.52531C34.9439 11.4622 35.6407 16.7578 33.7246 21.3391C33.4807 21.914 33.202 22.4714 32.8884 23.0114L30.2755 20.3985C30.5542 19.8062 30.7632 19.1965 30.9374 18.552C31.9826 14.3887 30.3626 10.0163 26.8612 7.54273L34.4214 0C44.2461 8.29178 44.3157 23.656 34.4214 32.0174C29.9096 27.5057 25.4154 23.0114 20.9037 18.4997C16.392 23.0114 11.8977 27.5057 7.38597 32.0174C-2.50842 23.6734 -2.42132 8.29178 7.38597 0Z" fill="#29313D" fill-opacity="0.8"/>
<path d="M57.3108 20.712C55.6385 16.0261 53.914 11.3924 52.1198 6.77621C52.7643 6.79363 53.3043 6.79363 53.7049 6.79363C54.1579 6.79363 54.6804 6.79363 55.2901 6.77621L58.147 15.2248L59.3489 18.5519C59.6102 18.0468 59.9935 17.2455 60.5161 16.1306C61.0386 15.0157 61.4045 14.197 61.6309 13.6744C61.3174 12.7163 60.9167 11.5666 60.4464 10.2079C59.976 8.84915 59.5405 7.71687 59.1921 6.77621C59.767 6.79363 60.2722 6.79363 60.7077 6.79363C61.1954 6.79363 61.7006 6.79363 62.2232 6.77621C62.5367 8.01301 62.9025 9.23239 63.2858 10.4343C63.8606 9.19755 64.3832 7.97817 64.8536 6.77621C65.4458 6.79363 65.9162 6.79363 66.282 6.79363C66.7 6.79363 67.1704 6.79363 67.7104 6.77621C67.2749 7.64719 66.7349 8.76205 66.0904 10.1208C65.4458 11.4795 64.9232 12.6118 64.54 13.5002C64.6968 13.988 64.9755 14.8241 65.3761 15.9912C65.7942 17.1584 66.0904 17.9945 66.282 18.4648L69.0169 12.6292L71.0027 8.25688L71.6472 6.75879C72.3092 6.77621 72.8318 6.77621 73.215 6.77621C73.6505 6.77621 74.1731 6.77621 74.8002 6.75879L72.884 10.5737L68.8775 18.7958L67.9717 20.6946C67.2401 20.6771 66.6129 20.6771 66.1078 20.6771C65.5678 20.6771 64.9406 20.6771 64.2264 20.6946C63.8258 19.3184 63.3729 17.9771 62.9025 16.6532C62.258 17.9771 61.6483 19.3184 61.0735 20.6946C60.3419 20.6771 59.7147 20.6771 59.1921 20.6771C58.6347 20.6946 58.0076 20.712 57.3108 20.712Z" fill="#29313D" fill-opacity="0.8"/>
<path d="M75.8454 12.6118C75.9325 12.124 76.0022 11.7756 76.0196 11.584C76.037 11.3924 76.0893 11.0789 76.1415 10.6782C77.0648 10.4692 77.8835 10.3124 78.5977 10.2253C79.3119 10.1382 79.9913 10.0859 80.6532 10.0859C81.4023 10.0859 82.0816 10.173 82.7087 10.3472C83.3359 10.5214 83.8236 10.8001 84.172 11.1834C84.5204 11.5666 84.6946 12.1066 84.6946 12.8208C84.6946 13.2041 84.6423 14.197 84.5378 15.7822C84.4333 17.3674 84.3636 19.0048 84.3462 20.712C83.8236 20.6945 83.3533 20.6945 82.9178 20.6945C82.4997 20.6945 82.012 20.6945 81.4545 20.712C81.5416 19.8932 81.6113 18.9351 81.6636 17.8551L81.8029 15.3118C81.5416 15.486 81.35 15.608 81.2106 15.6777C81.0713 15.7473 80.9145 15.817 80.7577 15.8693C80.5835 15.9215 80.2874 16.0086 79.8519 16.1306C79.4164 16.2525 79.0854 16.357 78.8242 16.4441C78.5629 16.5312 78.3364 16.6357 78.1274 16.7403C77.9183 16.8448 77.7441 16.9841 77.6048 17.1235C77.4654 17.2629 77.3609 17.4022 77.2912 17.559C77.2215 17.7158 77.1867 17.8725 77.1867 18.0467C77.1867 18.3255 77.2738 18.5868 77.4306 18.7784C77.5874 18.97 77.8138 19.1268 78.0577 19.2139C78.3016 19.301 78.5977 19.3358 78.9461 19.3358C79.1551 19.3358 79.399 19.3184 79.6429 19.2835C79.8868 19.2487 80.2177 19.1616 80.6184 19.0222C80.479 19.4055 80.3048 19.9803 80.1132 20.7642C79.6255 20.8513 79.2422 20.9036 78.9635 20.921C78.6848 20.9384 78.4061 20.9558 78.1622 20.9558C77.3086 20.9558 76.5944 20.8339 76.0544 20.6074C75.5144 20.381 75.0963 20.0152 74.835 19.51C74.5737 19.0048 74.4344 18.4997 74.4344 17.9945C74.4344 17.6983 74.4866 17.4196 74.5912 17.1235C74.6957 16.8274 74.835 16.5835 75.0441 16.3396C75.2531 16.0957 75.497 15.8693 75.8105 15.6428C76.1241 15.4164 76.577 15.2073 77.1693 14.9983C77.7615 14.7893 78.5454 14.5802 79.5209 14.3712C79.7822 14.3189 80.0435 14.2492 80.3222 14.1796C80.601 14.1099 80.8274 14.0228 80.9842 13.9531C81.141 13.8834 81.2978 13.7789 81.4197 13.657C81.5416 13.535 81.6287 13.4131 81.6984 13.2912C81.7681 13.1692 81.7855 13.0299 81.7855 12.8905C81.7855 12.6292 81.6984 12.4028 81.5242 12.2111C81.35 12.0195 81.1236 11.8976 80.8448 11.8279C80.5661 11.7582 80.27 11.7234 79.939 11.7234C78.7196 11.7234 77.3435 12.0195 75.8454 12.6118Z" fill="#29313D" fill-opacity="0.8"/>
<path d="M86.663 25.3978C86.8372 23.499 86.994 21.0428 87.1159 18.0118C87.2553 14.9982 87.325 12.542 87.325 10.6607C88.614 10.4342 89.6244 10.2775 90.3212 10.2078C91.0354 10.1381 91.7322 10.1033 92.429 10.1033C93.3522 10.1033 94.1883 10.2078 94.9548 10.4342C95.7213 10.6433 96.331 11.0091 96.7839 11.5317C97.2368 12.0543 97.5852 12.6291 97.8116 13.3085C98.0381 13.9879 98.1426 14.6847 98.1426 15.4163C98.1426 16.1653 98.0381 16.8795 97.8291 17.5589C97.62 18.2383 97.289 18.8654 96.8536 19.4054C96.4181 19.9454 95.9129 20.3461 95.338 20.6074C94.7632 20.8512 94.1361 20.9732 93.4567 20.9732C93.0561 20.9732 92.6554 20.9209 92.2722 20.8338C91.8889 20.7467 91.5405 20.6074 91.2444 20.4506C90.9483 20.2938 90.7044 20.137 90.5128 19.9802C90.3212 19.8235 90.0773 19.5796 89.7812 19.266L89.6244 23.7081L89.6418 24.3874C89.6418 24.4745 89.6244 24.8229 89.6244 25.4152C88.9973 25.4152 88.5095 25.3978 88.1785 25.3978H86.663ZM90.147 12.542C90.0947 12.9078 90.0599 13.2214 90.0424 13.4827L89.9728 14.615C89.9379 15.1027 89.9379 15.4685 89.9379 15.695C89.9379 16.1131 89.9728 16.5137 90.0599 16.8795C90.147 17.2628 90.3212 17.6112 90.565 17.9247C90.8089 18.2383 91.1225 18.4822 91.4709 18.6563C91.8193 18.8305 92.1851 18.9002 92.5509 18.9002C93.0735 18.9002 93.5438 18.7609 93.9619 18.4647C94.38 18.1686 94.7109 17.7331 94.9548 17.1583C95.1987 16.5834 95.3032 15.9737 95.3032 15.3292C95.3032 14.615 95.1813 14.0053 94.92 13.5175C94.6587 13.0298 94.3277 12.664 93.8922 12.4375C93.4567 12.2111 92.969 12.1065 92.429 12.1065C91.7496 12.1414 90.9657 12.2633 90.147 12.542Z" fill="#29313D" fill-opacity="0.8"/>
<path d="M99.902 20.712L100.111 18.0642L100.337 12.9777L100.442 8.62277C100.459 7.83888 100.459 7.22919 100.459 6.7937C101.174 6.81112 101.679 6.81112 101.975 6.81112C102.323 6.81112 102.794 6.81112 103.369 6.7937L103.159 10.1034L102.916 15.399L102.811 19.3533L102.794 20.7295C102.184 20.712 101.714 20.712 101.365 20.712C100.999 20.6946 100.512 20.712 99.902 20.712ZM103.159 14.9113L105.232 12.3854C105.407 12.1764 105.616 11.8977 105.86 11.5841C106.103 11.2706 106.417 10.8525 106.8 10.3473C107.514 10.3647 108.02 10.3647 108.351 10.3647C108.803 10.3647 109.361 10.3647 110.058 10.3473L106.696 14.1971L106.086 14.9287C106.591 15.7126 107.967 17.6462 110.232 20.7295C109.622 20.712 109.1 20.712 108.664 20.712C108.229 20.712 107.689 20.712 107.044 20.7295C106.643 20.0849 106.33 19.5623 106.086 19.1791C105.842 18.7959 105.616 18.4475 105.389 18.1513L103.647 15.6778C103.595 15.5907 103.421 15.3294 103.159 14.9113Z" fill="#29313D" fill-opacity="0.8"/>
<path d="M111.382 20.7119C111.486 19.6842 111.556 18.8306 111.591 18.1512C111.66 17.0712 111.713 15.7996 111.765 14.3886C111.817 12.9776 111.852 11.6188 111.869 10.3298C112.531 10.3472 113.036 10.3472 113.367 10.3472C113.664 10.3472 114.169 10.3472 114.848 10.3298C114.761 11.5143 114.674 12.6466 114.622 13.7266C114.587 14.8066 114.535 16.026 114.517 17.4196C114.5 18.8132 114.482 19.9106 114.482 20.7119C113.855 20.6945 113.367 20.6945 112.984 20.6945C112.636 20.6945 112.096 20.7119 111.382 20.7119ZM111.939 8.55297C111.974 7.85618 111.974 7.31617 111.974 6.93294V6.61938C112.601 6.6368 113.089 6.6368 113.489 6.6368C114.012 6.6368 114.517 6.6368 114.97 6.61938C114.953 6.79358 114.935 6.9852 114.935 7.19424L114.883 8.55297C114.36 8.53555 113.89 8.53555 113.455 8.53555C113.019 8.53555 112.514 8.55297 111.939 8.55297Z" fill="#29313D" fill-opacity="0.8"/>
<path d="M127.495 20.712C126.903 20.6946 126.432 20.6946 126.119 20.6946C125.718 20.6946 125.265 20.6946 124.742 20.712L124.76 19.0223C124.568 19.301 124.394 19.5449 124.255 19.7191C124.115 19.8933 123.924 20.0674 123.697 20.2242C123.471 20.381 123.21 20.5204 122.948 20.6249C122.687 20.7294 122.373 20.7991 122.008 20.8688C121.659 20.9384 121.293 20.9733 120.893 20.9733C120.126 20.9733 119.464 20.8688 118.907 20.6423C118.349 20.4158 117.897 20.0849 117.566 19.632C117.235 19.179 117.078 18.5345 117.078 17.6984V17.4893L117.235 14.859L117.391 11.3924C117.391 11.1137 117.409 10.7653 117.409 10.3473C118.053 10.3647 118.558 10.3647 118.924 10.3647C119.308 10.3647 119.778 10.3647 120.335 10.3473L120.004 14.9983C119.987 15.3641 119.969 15.6603 119.952 15.9041C119.935 16.148 119.935 16.3396 119.935 16.4441C119.935 16.9319 120.004 17.3326 120.161 17.6635C120.318 17.9945 120.562 18.2384 120.928 18.3952C121.293 18.5694 121.677 18.6565 122.095 18.6565C122.495 18.6565 122.861 18.5868 123.21 18.43C123.523 18.2906 123.802 18.099 124.028 17.8551C124.255 17.6113 124.446 17.2803 124.603 16.8622C124.725 16.5661 124.812 16.148 124.864 15.6254C124.917 15.2596 124.952 14.6151 125.004 13.6918C125.056 12.5944 125.091 11.4621 125.126 10.3298C125.805 10.3473 126.31 10.3473 126.676 10.3473C127.077 10.3473 127.53 10.3473 128.035 10.3298C127.948 11.3053 127.861 12.5247 127.774 13.9706C127.686 15.4164 127.617 16.6358 127.599 17.5764C127.53 18.5519 127.512 19.5797 127.495 20.712Z" fill="#29313D" fill-opacity="0.8"/>
</g>
<defs>
<clipPath id="clip0_0_1018">
<rect width="128" height="32.0174" fill="white"/>
</clipPath>
</defs>
</svg>
