<svg width="128" height="37" viewBox="0 0 128 37" fill="none" xmlns="http://www.w3.org/2000/svg">
<g clip-path="url(#clip0_0_1005)">
<path d="M39.9742 16.8908C41.6974 16.8908 43.0795 18.2729 43.0795 19.9961C43.0795 21.7193 41.6974 23.1014 39.9742 23.1014C38.251 23.1014 36.8689 21.7193 36.8689 19.9961C36.8689 19.4217 37.0304 18.8652 37.2997 18.3985L33.4943 12.1879C33.4225 12.1879 33.3507 12.1879 33.2789 12.1879C33.1533 12.1879 33.0456 12.1879 32.9199 12.17L26.458 21.6654C26.6913 22.0962 26.817 22.5988 26.817 23.1193C26.817 24.8425 25.4349 26.2247 23.7117 26.2247C21.9885 26.2247 20.6064 24.8425 20.6064 23.1193C20.6064 22.6885 20.6961 22.2936 20.8397 21.9167L16.4061 16.5677C16.2087 16.6215 15.9933 16.6395 15.7779 16.6395C15.6881 16.6395 15.5804 16.6395 15.4907 16.6215L5.81573 31.5557C6.06703 32.0045 6.21063 32.525 6.21063 33.0815C6.21063 34.8047 4.81055 36.1868 3.10531 36.1868C1.40008 36.1868 0 34.8047 0 33.0815C0 31.3583 1.40008 29.9762 3.10531 29.9762C3.19506 29.9762 3.30276 29.9762 3.39251 29.9941L13.0675 15.0599C12.8162 14.6111 12.6726 14.0906 12.6726 13.5341C12.6726 11.811 14.0547 10.4288 15.7779 10.4288C17.5011 10.4288 18.8832 11.811 18.8832 13.5341C18.8832 13.9649 18.7934 14.3598 18.6498 14.7368L23.0834 20.1038C23.2988 20.0679 23.5142 20.032 23.7296 20.032C23.8553 20.032 23.963 20.032 24.0886 20.0499L30.5506 10.5545C30.3172 10.1237 30.1916 9.62109 30.1916 9.10055C30.1916 7.37737 31.5737 5.99523 33.2969 5.99523C35.0201 5.99523 36.4022 7.37737 36.4022 9.10055C36.4022 9.67494 36.2406 10.2314 35.9714 10.6981L39.7947 16.9087C39.8306 16.8908 39.9024 16.8908 39.9742 16.8908ZM33.7277 24.2861C34.0508 23.5501 34.8944 23.227 35.6303 23.5501C36.3663 23.8732 36.6894 24.7169 36.3663 25.4528C34.9303 28.6838 32.5968 31.4121 29.6531 33.3148C26.817 35.1637 23.4245 36.2406 19.7807 36.2406C17.86 36.2406 16.0112 35.9355 14.2521 35.3791C12.4392 34.8047 10.7699 33.9431 9.26209 32.8661C8.6159 32.3994 8.45435 31.5019 8.92105 30.8557C9.38774 30.2095 10.2852 30.048 10.9314 30.5147C12.2059 31.4301 13.6239 32.1481 15.1317 32.6327C16.5856 33.0994 18.1472 33.3507 19.7807 33.3507C22.8501 33.3507 25.7041 32.4532 28.0914 30.8916C30.5506 29.2941 32.525 26.9965 33.7277 24.2861ZM5.25929 22.7603C5.49264 23.5142 5.07979 24.322 4.3259 24.5733C3.57201 24.8066 2.76427 24.3938 2.51297 23.6399C2.22577 22.7603 2.01038 21.8449 1.86678 20.9295C1.72318 19.9961 1.65138 19.0627 1.65138 18.1293C1.65138 13.1213 3.67971 8.59795 6.96452 5.31314C10.2493 2.02833 14.7727 0 19.7807 0C21.6834 0 23.5322 0.305147 25.2733 0.843641C27.0503 1.40008 28.7197 2.24372 30.2454 3.32071C30.8916 3.76946 31.0532 4.66695 30.5865 5.33109C30.1377 5.97728 29.2402 6.13883 28.5761 5.67214C27.3196 4.7926 25.9195 4.0746 24.3938 3.60791C22.9398 3.14121 21.3962 2.88992 19.7807 2.88992C15.5804 2.88992 11.7571 4.59515 9.0108 7.35942C6.24653 10.1237 4.5413 13.929 4.5413 18.1293C4.5413 18.955 4.59515 19.7448 4.7208 20.4807C4.84645 21.2705 5.02594 22.0244 5.25929 22.7603Z" fill="#29313D" fill-opacity="0.8"/>
<path d="M51.3903 11.9724C52.0724 10.8057 53.0057 9.90822 54.1725 9.24408C55.3392 8.59788 56.6316 8.25684 58.0137 8.25684C59.6113 8.25684 61.0293 8.65173 62.2678 9.42357C63.5064 10.2134 64.4039 11.3083 64.9783 12.7443H62.0345C61.6396 11.9545 61.1011 11.3622 60.419 10.9852C59.7369 10.5903 58.9292 10.4108 58.0317 10.4108C57.0445 10.4108 56.1649 10.6262 55.3751 11.075C54.6033 11.5237 53.993 12.1519 53.5622 12.9956C53.1314 13.8213 52.898 14.7906 52.898 15.9035C52.898 17.0163 53.1134 17.9856 53.5622 18.8113C54.0109 19.637 54.6033 20.2832 55.3751 20.7319C56.147 21.1807 57.0265 21.414 58.0317 21.414C58.9292 21.414 59.7369 21.2166 60.419 20.8396C61.1011 20.4627 61.6396 19.8704 62.0345 19.0806H64.9783C64.4218 20.5165 63.5243 21.6294 62.2678 22.4013C61.0293 23.1731 59.6113 23.568 58.0137 23.568C56.6137 23.568 55.3213 23.2449 54.1545 22.5808C52.9878 21.9346 52.0724 21.0191 51.3903 19.8524C50.7082 18.6857 50.3671 17.3753 50.3671 15.9035C50.3671 14.4316 50.7082 13.1392 51.3903 11.9724Z" fill="#29313D" fill-opacity="0.8"/>
<path d="M71.7274 11.8647C72.3197 11.5236 73.0377 11.3621 73.8455 11.3621V13.9109H73.2172C72.2479 13.9109 71.5299 14.1622 71.0273 14.6469C70.5247 15.1315 70.2914 15.9752 70.2914 17.1957V23.4423H67.8323V11.5595H70.2914V13.2827C70.6504 12.6724 71.135 12.2057 71.7274 11.8647Z" fill="#29313D" fill-opacity="0.8"/>
<path d="M86.895 18.4164H77.8303C77.9021 19.3678 78.2611 20.1217 78.8893 20.6961C79.5176 21.2705 80.2894 21.5577 81.2228 21.5577C82.5511 21.5577 83.4845 21.0012 84.023 19.9063H86.6796C86.3206 21.0012 85.6744 21.8987 84.723 22.5808C83.7896 23.2808 82.6229 23.6219 81.2228 23.6219C80.092 23.6219 79.0688 23.3706 78.1714 22.85C77.2739 22.3475 76.5738 21.6295 76.0533 20.6961C75.5327 19.7627 75.2814 18.7036 75.2814 17.4831C75.2814 16.2625 75.5327 15.1855 76.0174 14.27C76.52 13.3367 77.2021 12.6366 78.0996 12.134C78.997 11.6314 80.0202 11.3801 81.1869 11.3801C82.2998 11.3801 83.305 11.6314 84.1845 12.1161C85.0641 12.6007 85.7462 13.2828 86.2308 14.1803C86.7155 15.0598 86.9668 16.083 86.9668 17.2318C86.9847 17.6446 86.9488 18.0395 86.895 18.4164ZM84.4179 16.424C84.3999 15.5265 84.0768 14.7906 83.4486 14.2521C82.8204 13.7136 82.0306 13.4264 81.0972 13.4264C80.2535 13.4264 79.5176 13.6957 78.9252 14.2341C78.315 14.7726 77.956 15.5086 77.8483 16.424H84.4179Z" fill="#29313D" fill-opacity="0.8"/>
<path d="M91.5081 22.8499C90.6106 22.3473 89.8926 21.6293 89.372 20.696C88.8515 19.7626 88.6002 18.7035 88.6002 17.4829C88.6002 16.2803 88.8694 15.2033 89.39 14.2699C89.9285 13.3365 90.6465 12.6185 91.5619 12.116C92.4773 11.6134 93.5005 11.3621 94.6493 11.3621C95.7981 11.3621 96.8032 11.6134 97.7366 12.116C98.6521 12.6185 99.388 13.3365 99.9086 14.2699C100.429 15.2033 100.698 16.2803 100.698 17.4829C100.698 18.6856 100.429 19.7626 99.8727 20.696C99.3342 21.6293 98.5803 22.3473 97.6469 22.8679C96.7135 23.3705 95.6724 23.6397 94.5416 23.6397C93.4287 23.6218 92.4055 23.3705 91.5081 22.8499ZM96.3186 21.037C96.875 20.7319 97.3238 20.2831 97.6648 19.6728C98.0059 19.0625 98.1854 18.3445 98.1854 17.4829C98.1854 16.6214 98.0238 15.8854 97.6828 15.2931C97.3597 14.7007 96.9289 14.252 96.3724 13.9468C95.8339 13.6417 95.2416 13.4981 94.6134 13.4981C93.9851 13.4981 93.3928 13.6417 92.8543 13.9468C92.3158 14.252 91.885 14.7007 91.5799 15.2931C91.2568 15.8854 91.1132 16.6214 91.1132 17.4829C91.1132 18.7574 91.4363 19.7446 92.1004 20.4447C92.7466 21.1447 93.5723 21.4857 94.5595 21.4857C95.1698 21.4857 95.7622 21.3421 96.3186 21.037Z" fill="#29313D" fill-opacity="0.8"/>
<path d="M111.63 11.9544C112.366 12.3493 112.94 12.9237 113.371 13.6776C113.784 14.4315 113.999 15.3649 113.999 16.4419V23.4423H111.558V16.8008C111.558 15.7418 111.289 14.9161 110.768 14.3597C110.23 13.7853 109.512 13.516 108.596 13.516C107.681 13.516 106.945 13.8032 106.406 14.3597C105.868 14.9341 105.599 15.7418 105.599 16.8008V23.4423H103.14V11.5595H105.599V12.9237C105.994 12.439 106.514 12.0621 107.142 11.7749C107.771 11.5057 108.435 11.3621 109.135 11.3621C110.05 11.3621 110.894 11.5595 111.63 11.9544Z" fill="#29313D" fill-opacity="0.8"/>
<path d="M127.91 18.4164H118.846C118.917 19.3678 119.276 20.1217 119.905 20.6961C120.533 21.2705 121.305 21.5577 122.238 21.5577C123.566 21.5577 124.5 21.0012 125.038 19.9063H127.695C127.336 21.0012 126.69 21.8987 125.738 22.5808C124.805 23.2808 123.638 23.6219 122.238 23.6219C121.107 23.6219 120.084 23.3706 119.187 22.85C118.289 22.3475 117.589 21.6295 117.069 20.6961C116.548 19.7627 116.297 18.7036 116.297 17.4831C116.297 16.2625 116.548 15.1855 117.033 14.27C117.535 13.3367 118.217 12.6366 119.115 12.134C120.012 11.6314 121.036 11.3801 122.202 11.3801C123.315 11.3801 124.32 11.6314 125.2 12.1161C126.079 12.6007 126.761 13.2828 127.246 14.1803C127.731 15.0598 127.982 16.083 127.982 17.2318C128 17.6446 127.964 18.0395 127.91 18.4164ZM125.433 16.424C125.415 15.5265 125.092 14.7906 124.464 14.2521C123.836 13.7136 123.046 13.4264 122.112 13.4264C121.269 13.4264 120.533 13.6957 119.941 14.2341C119.33 14.7726 118.971 15.5086 118.864 16.424H125.433Z" fill="#29313D" fill-opacity="0.8"/>
</g>
<defs>
<clipPath id="clip0_0_1005">
<rect width="128" height="36.2406" fill="white"/>
</clipPath>
</defs>
</svg>
