<svg width="110" height="26" viewBox="0 0 110 26" fill="none" xmlns="http://www.w3.org/2000/svg">
<g clip-path="url(#clip0_0_991)">
<path fill-rule="evenodd" clip-rule="evenodd" d="M5.48902 0C5.48902 3.03511 3.03511 5.48902 0 5.48902V9.49278C5.24363 9.49278 9.49278 5.24363 9.49278 0H5.48902ZM15.4984 14.194C14.7235 15.2789 13.8582 16.2733 12.9024 17.1903C9.31196 19.9025 4.84325 21.5041 0 21.5041V25.482L0.413291 25.5078C6.08313 25.4174 11.3009 23.4801 15.4855 20.2642C19.683 23.4801 24.9008 25.4174 30.5577 25.5078L30.9968 25.4949V21.5041C26.1536 21.5041 21.6849 19.9025 18.0944 17.2032C17.1387 16.2863 16.2733 15.2789 15.4984 14.194ZM15.2659 8.56287C15.3434 8.42081 15.4209 8.27874 15.4984 8.13667C15.5759 8.27874 15.6534 8.42081 15.7309 8.56287C18.7273 13.8969 24.4487 17.5003 30.9968 17.5003V13.4965C23.5447 13.4965 17.5003 7.45216 17.5003 0H13.4965C13.4965 3.03511 12.4891 5.83774 10.8101 8.08501C8.34331 11.3784 4.41705 13.4965 0 13.4965V17.5003C4.93366 17.5003 9.40237 15.4597 12.5795 12.1663C13.6257 11.0943 14.5298 9.88024 15.2659 8.56287ZM21.504 0C21.504 5.24363 25.7532 9.49278 30.9968 9.49278V5.48902C27.9617 5.48902 25.5078 3.03511 25.5078 0H21.504Z" fill="#29313D" fill-opacity="0.8"/>
<path d="M50.202 21.6202L46.4823 15.1626H44.4546V21.6202H41.807V5.46313H47.3864C48.6263 5.46313 49.6724 5.6827 50.5378 6.1089C51.4031 6.53511 52.0359 7.12921 52.4621 7.85247C52.8883 8.57573 53.1079 9.3894 53.1079 10.2935C53.1079 11.3525 52.7979 12.3083 52.1909 13.1607C51.5839 14.026 50.6411 14.6072 49.3625 14.9172L53.3662 21.6073H50.202V21.6202ZM44.4675 13.0444H47.3993C48.3938 13.0444 49.1429 12.7991 49.6466 12.2954C50.1503 11.8046 50.3957 11.133 50.3957 10.2935C50.3957 9.45398 50.1503 8.80821 49.6466 8.33034C49.1558 7.85247 48.3938 7.62 47.3864 7.62H44.4546V13.0444H44.4675Z" fill="#29313D" fill-opacity="0.8"/>
<path d="M56.6467 6.62566C56.3238 6.30277 56.1559 5.9024 56.1559 5.41161C56.1559 4.92083 56.3238 4.53337 56.6467 4.19757C56.9696 3.86177 57.37 3.70679 57.8608 3.70679C58.3257 3.70679 58.7261 3.87469 59.049 4.19757C59.3718 4.52045 59.5397 4.92083 59.5397 5.41161C59.5397 5.9024 59.3718 6.28986 59.049 6.62566C58.7261 6.96145 58.3257 7.11644 57.8608 7.11644C57.37 7.11644 56.9696 6.94854 56.6467 6.62566ZM59.1523 8.80835V21.6204H56.5046V8.80835H59.1523Z" fill="#29313D" fill-opacity="0.8"/>
<path d="M71.8093 9.23441C72.6101 9.64771 73.23 10.2676 73.6821 11.0942C74.1341 11.9208 74.3536 12.9024 74.3536 14.0648V21.6202H71.7318V14.4651C71.7318 13.3157 71.4477 12.4374 70.8665 11.8304C70.2982 11.2234 69.5104 10.9134 68.5159 10.9134C67.5214 10.9134 66.7336 11.2234 66.1524 11.8304C65.5712 12.4374 65.2742 13.3157 65.2742 14.4651V21.6202H62.6394V8.80821H65.2871V10.2676C65.7262 9.73811 66.2816 9.32482 66.9532 9.04068C67.6248 8.75655 68.348 8.60156 69.11 8.60156C70.1045 8.60156 71.0086 8.80821 71.8093 9.23441Z" fill="#29313D" fill-opacity="0.8"/>
<path d="M83.0973 10.9781H80.7209V21.6203H78.0474V10.9781H76.5363V8.8083H78.0474V7.90423C78.0474 6.43188 78.4349 5.3599 79.2227 4.68831C80.0106 4.01671 81.2375 3.68091 82.9036 3.68091V5.88943C82.1029 5.88943 81.5346 6.04442 81.2117 6.34147C80.8888 6.63852 80.7209 7.16805 80.7209 7.90423V8.8083H83.0973V10.9781Z" fill="#29313D" fill-opacity="0.8"/>
<path d="M85.3704 11.74C85.9 10.7455 86.6361 9.97059 87.5531 9.42815C88.4701 8.8857 89.4904 8.60156 90.6141 8.60156C91.6215 8.60156 92.4997 8.79529 93.2488 9.19567C93.9979 9.59604 94.6049 10.0868 95.0569 10.668V8.80821H97.7304V21.6202H95.0569V19.7088C94.6049 20.3158 93.9979 20.8195 93.223 21.2199C92.448 21.6202 91.5698 21.8269 90.5753 21.8269C89.4775 21.8269 88.4701 21.5427 87.5531 20.9745C86.6361 20.4062 85.9129 19.6184 85.3834 18.598C84.8538 17.5777 84.5826 16.4283 84.5826 15.1496C84.5826 13.871 84.828 12.7345 85.3704 11.74ZM94.5016 12.9024C94.14 12.2566 93.6621 11.7529 93.068 11.4171C92.4739 11.0813 91.841 10.9005 91.1565 10.9005C90.472 10.9005 89.8391 11.0684 89.245 11.4042C88.6638 11.74 88.1989 12.2179 87.8244 12.8636C87.4627 13.5094 87.2819 14.2714 87.2819 15.1496C87.2819 16.0279 87.4627 16.8028 87.8244 17.4744C88.186 18.146 88.6639 18.6497 89.2709 18.9984C89.8779 19.3471 90.4978 19.515 91.1694 19.515C91.8539 19.515 92.4868 19.3471 93.0809 18.9984C93.675 18.6626 94.1529 18.1589 94.5145 17.5002C94.8761 16.8416 95.0569 16.0666 95.0569 15.1884C95.044 14.3231 94.8632 13.5481 94.5016 12.9024Z" fill="#29313D" fill-opacity="0.8"/>
<path d="M103.852 4.41699V21.6202H101.205V4.41699H103.852Z" fill="#29313D" fill-opacity="0.8"/>
<path d="M110 4.41699V21.6202H107.352V4.41699H110Z" fill="#29313D" fill-opacity="0.8"/>
</g>
<defs>
<clipPath id="clip0_0_991">
<rect width="110" height="25.4949" fill="white"/>
</clipPath>
</defs>
</svg>
