<svg width="110" height="30" viewBox="0 0 110 30" fill="none" xmlns="http://www.w3.org/2000/svg">
<g clip-path="url(#clip0_0_979)">
<path fill-rule="evenodd" clip-rule="evenodd" d="M26.9783 3.37703H16.8598V27.5095C16.8598 28.4454 16.101 29.1917 15.1776 29.1917C14.2417 29.1917 13.4955 28.4328 13.4955 27.5095V3.37703H3.37703V24.1198C3.37703 25.0558 4.11061 25.8273 5.05922 25.8273C5.99517 25.8273 6.74141 25.0684 6.74141 24.1451V6.7667H10.1184V24.1451C10.1184 26.9403 7.85443 29.2043 5.05922 29.2043C2.264 29.2043 0 26.9403 0 24.1451V0C10.1184 0 20.2369 0 30.3553 0V24.1325C30.3553 26.9277 28.0913 29.1917 25.2961 29.1917C22.5009 29.1917 20.2369 26.9277 20.2369 24.1325V6.74141H23.6139V24.1198C23.6139 25.0558 24.3728 25.802 25.2961 25.802C26.232 25.802 26.9783 25.0431 26.9783 24.1198V3.37703Z" fill="#29313D" fill-opacity="0.8"/>
<path d="M42.8516 5.99512V17.4037C42.8516 18.757 43.2057 19.7815 43.914 20.4645C44.6223 21.1475 45.6215 21.489 46.8863 21.489C48.1764 21.489 49.1756 21.1475 49.8839 20.4645C50.5921 19.7815 50.9463 18.757 50.9463 17.4037V5.99512H53.8806V17.3531C53.8806 18.8076 53.5644 20.0471 52.932 21.0589C52.2996 22.0708 51.4522 22.8297 50.3771 23.3229C49.3147 23.8162 48.1384 24.0692 46.8483 24.0692C45.5582 24.0692 44.3946 23.8162 43.3322 23.3229C42.2824 22.8297 41.435 22.0708 40.8279 21.0589C40.2081 20.0471 39.9046 18.8076 39.9046 17.3531V5.99512H42.8516Z" fill="#29313D" fill-opacity="0.8"/>
<path d="M60.6473 4.84424V23.8922H57.713V4.84424H60.6473Z" fill="#29313D" fill-opacity="0.8"/>
<path d="M64.4165 12.9516C65.0109 11.8512 65.8204 11.0038 66.8322 10.384C67.8567 9.77694 68.9824 9.47339 70.2219 9.47339C71.3349 9.47339 72.3088 9.68841 73.1436 10.1311C73.9784 10.5738 74.6361 11.1176 75.142 11.7627V9.70105H78.1016V23.8922H75.142V21.7799C74.6487 22.4503 73.9657 23.0068 73.1057 23.4495C72.2456 23.8922 71.2717 24.1198 70.1713 24.1198C68.9571 24.1198 67.8314 23.8036 66.8196 23.1839C65.8077 22.5515 64.9983 21.6787 64.4165 20.5531C63.822 19.4274 63.5311 18.1499 63.5311 16.7334C63.5311 15.3168 63.822 14.052 64.4165 12.9516ZM74.5349 14.2417C74.1302 13.5208 73.5989 12.9769 72.9539 12.5975C72.2962 12.218 71.6005 12.0283 70.8417 12.0283C70.0828 12.0283 69.3871 12.218 68.7294 12.5848C68.0717 12.9516 67.5532 13.4955 67.1484 14.2038C66.7437 14.912 66.5413 15.7595 66.5413 16.746C66.5413 17.7326 66.7437 18.58 67.1484 19.3262C67.5532 20.0598 68.0844 20.629 68.7421 21.0084C69.3998 21.4005 70.1081 21.5902 70.8417 21.5902C71.6005 21.5902 72.2962 21.4005 72.9539 21.0211C73.6116 20.6416 74.1302 20.0851 74.5349 19.3642C74.9396 18.6306 75.142 17.7832 75.142 16.7966C75.142 15.8101 74.9396 14.9626 74.5349 14.2417Z" fill="#29313D" fill-opacity="0.8"/>
<path d="M86.9426 10.1311C87.8153 9.68844 88.7766 9.47342 89.839 9.47342C91.0912 9.47342 92.2295 9.77697 93.2413 10.3714C94.2532 10.9785 95.05 11.826 95.6318 12.939C96.2136 14.052 96.5045 15.3168 96.5045 16.7334C96.5045 18.15 96.2136 19.4274 95.6318 20.5531C95.05 21.6788 94.2405 22.5515 93.2287 23.1839C92.2042 23.8163 91.0785 24.1199 89.839 24.1199C88.7386 24.1199 87.7647 23.9048 86.9173 23.4748C86.0699 23.0448 85.3996 22.5009 84.8936 21.8306V23.8922H81.9593V4.84424H84.8936V11.826C85.3996 11.1303 86.0825 10.5738 86.9426 10.1311ZM92.9125 14.2038C92.5078 13.4955 91.9765 12.9516 91.3188 12.5848C90.6611 12.218 89.9528 12.0283 89.194 12.0283C88.4604 12.0283 87.7521 12.218 87.0944 12.5975C86.4367 12.9769 85.9055 13.5208 85.5007 14.2417C85.096 14.9627 84.8936 15.8101 84.8936 16.7966C84.8936 17.7705 85.096 18.6306 85.5007 19.3642C85.9055 20.0978 86.4367 20.6416 87.0944 21.0211C87.7521 21.4005 88.4604 21.5902 89.194 21.5902C89.9528 21.5902 90.6611 21.4005 91.3188 21.0084C91.9765 20.6163 92.5078 20.0598 92.9125 19.3262C93.3172 18.5927 93.5196 17.7326 93.5196 16.746C93.5196 15.7595 93.3172 14.9121 92.9125 14.2038Z" fill="#29313D" fill-opacity="0.8"/>
<path d="M101.564 23.5254C100.678 23.1206 99.9828 22.5768 99.4642 21.8811C98.9456 21.1855 98.68 20.4139 98.6421 19.5539H101.678C101.728 20.161 102.019 20.6543 102.538 21.059C103.056 21.4637 103.714 21.6661 104.511 21.6661C105.333 21.6661 105.978 21.5017 106.433 21.1855C106.889 20.8693 107.116 20.4645 107.116 19.9586C107.116 19.4274 106.863 19.0353 106.357 18.7697C105.851 18.5167 105.042 18.2258 103.954 17.9223C102.892 17.6314 102.019 17.3405 101.349 17.0749C100.678 16.7966 100.097 16.3792 99.616 15.8101C99.1227 15.2409 98.8824 14.4947 98.8824 13.5714C98.8824 12.8125 99.11 12.1295 99.5527 11.4971C99.9954 10.8647 100.64 10.3714 101.475 10.0173C102.31 9.66311 103.271 9.47339 104.346 9.47339C105.965 9.47339 107.255 9.87813 108.242 10.7002C109.228 11.5224 109.76 12.6228 109.823 14.0393H106.889C106.838 13.4069 106.585 12.901 106.117 12.5216C105.649 12.1421 105.029 11.9524 104.232 11.9524C103.461 11.9524 102.867 12.1042 102.462 12.3951C102.044 12.686 101.842 13.0781 101.842 13.5587C101.842 13.9381 101.981 14.2543 102.259 14.5073C102.538 14.7603 102.867 14.9626 103.259 15.1144C103.651 15.2662 104.232 15.4433 105.004 15.6709C106.029 15.9492 106.876 16.2274 107.546 16.5057C108.204 16.784 108.773 17.2013 109.254 17.7579C109.734 18.3017 109.987 19.0353 110 19.946C110 20.7554 109.772 21.4764 109.33 22.1088C108.887 22.7412 108.255 23.2471 107.432 23.6012C106.61 23.9554 105.662 24.1451 104.561 24.1451C103.448 24.1198 102.449 23.9301 101.564 23.5254Z" fill="#29313D" fill-opacity="0.8"/>
</g>
<defs>
<clipPath id="clip0_0_979">
<rect width="110" height="29.1917" fill="white"/>
</clipPath>
</defs>
</svg>
