<svg width="128" height="27" viewBox="0 0 128 27" fill="none" xmlns="http://www.w3.org/2000/svg">
<g clip-path="url(#clip0_0_965)">
<path fill-rule="evenodd" clip-rule="evenodd" d="M28.8115 10.1523L26.3499 12.6138L26.3627 12.7413C26.4137 13.5576 26.3372 14.3611 26.1586 15.1519C25.9801 15.9299 25.6867 16.6951 25.2914 17.3966L25.1638 17.6389L27.6381 19.0674L27.7784 18.825C28.4799 17.5879 28.9263 16.2232 29.1303 14.833C29.3216 13.4428 29.2706 12.0271 28.939 10.6497L28.8115 10.1523ZM29.8446 2.52531L17.8557 14.5141L5.86689 2.52531L5.68833 2.75488C3.46912 5.31845 2.18096 8.45596 1.87486 11.6827C1.55601 14.9095 2.21922 18.2383 3.89 21.1845L4.0303 21.4269L6.5301 19.9857L6.37705 19.7433C5.2802 17.7919 4.71902 15.6365 4.68076 13.4811C4.65525 11.3129 5.15266 9.15743 6.19849 7.18055L6.28777 7.01475C7.9458 8.67278 9.60383 10.3308 11.2619 11.9761L11.2491 12.0526C11.0578 13.1367 11.1343 14.2463 11.4532 15.2794C11.772 16.2997 12.346 17.2563 13.124 18.0343L13.2515 18.1618L9.20846 20.4958L9.43803 20.7509C9.73137 21.0825 10.0502 21.4014 10.3818 21.6947C12.5118 23.5823 15.1901 24.5261 17.8685 24.5261C20.5468 24.5261 23.2252 23.5695 25.3424 21.6819C25.674 21.3886 25.9801 21.0825 26.2862 20.7381L26.5157 20.4831L22.4982 18.1618L22.6258 18.0343C23.4038 17.2563 23.9649 16.3125 24.2965 15.2794C24.6154 14.2463 24.7047 13.1495 24.5006 12.0526L24.4751 11.9888L29.3982 7.06576L29.4619 7.00199L30.2782 8.69829L30.2654 8.71104L30.3165 8.87684C30.9414 10.6624 31.171 12.55 31.0052 14.3994C30.8394 16.2615 30.291 18.0725 29.3599 19.7306L29.2196 19.9729L31.7194 21.4269L31.8597 21.1845C33.5305 18.2383 34.181 14.9095 33.8749 11.6827C33.556 8.45596 32.2678 5.33121 30.0614 2.75488L29.8446 2.52531ZM6.56836 14.8202C6.77243 16.2232 7.21882 17.5879 7.92029 18.8378L8.06059 19.0801L10.5604 17.6389L10.4328 17.3966C10.0375 16.6951 9.74413 15.9299 9.56557 15.1519C9.38701 14.3611 9.32324 13.5576 9.36151 12.7413L9.37426 12.6138L6.87446 10.1267L6.75967 10.6114C6.42807 12.0016 6.3643 13.4301 6.56836 14.8202ZM35.6222 11.4404C36.0558 15.6748 34.9972 20.0494 32.3571 23.7098L32.2806 23.8119L28.0845 21.3886L27.9315 21.5672C27.383 22.2304 26.7963 22.8171 26.1714 23.34C23.7736 25.3296 20.8147 26.3244 17.8557 26.3244C14.8968 26.3244 11.9378 25.3424 9.54006 23.3527C8.90236 22.8298 8.31567 22.2431 7.76725 21.5799L7.6142 21.4014L3.44361 23.8119L3.36709 23.7098C0.714237 20.0367 -0.344352 15.662 0.089287 11.4404C0.522926 7.21881 2.44879 3.15026 5.77761 0.0892786L5.87964 0L17.8685 11.9888L29.8446 0L29.9338 0.0892786C33.2627 3.13751 35.1885 7.21881 35.6222 11.4404Z" fill="#29313D" fill-opacity="0.8"/>
<path d="M46.884 18.6846C46.0295 18.3148 45.3535 17.7791 44.8689 17.0904C44.3842 16.4017 44.1291 15.5982 44.1291 14.6799H46.935C46.9988 15.3686 47.2666 15.9298 47.7513 16.3762C48.2359 16.8225 48.9119 17.0394 49.7792 17.0394C50.6847 17.0394 51.3862 16.8225 51.8964 16.3889C52.4065 15.9553 52.6489 15.3941 52.6489 14.7054C52.6489 14.1697 52.4958 13.7361 52.177 13.3917C51.8581 13.0601 51.4755 12.7923 51.0036 12.6137C50.5317 12.4351 49.894 12.2311 49.065 12.0143C48.0191 11.7337 47.1773 11.4531 46.5269 11.1725C45.8764 10.8919 45.328 10.4455 44.8689 9.85882C44.4097 9.25938 44.1801 8.46862 44.1801 7.4738C44.1801 6.55551 44.4097 5.752 44.8689 5.06328C45.328 4.37456 45.9657 3.85164 46.7947 3.48178C47.6237 3.11191 48.5803 2.93335 49.6644 2.93335C51.2076 2.93335 52.483 3.31597 53.4651 4.09397C54.4472 4.87197 54.9956 5.93056 55.1104 7.26974H52.2152C52.1642 6.68305 51.8964 6.18564 51.3862 5.77751C50.876 5.36938 50.2128 5.15256 49.3838 5.15256C48.6313 5.15256 48.0191 5.34387 47.5472 5.72649C47.0753 6.10912 46.833 6.65754 46.833 7.38453C46.833 7.86918 46.986 8.27731 47.2794 8.59616C47.5727 8.91501 47.9553 9.15734 48.4145 9.3359C48.8736 9.51446 49.4986 9.71852 50.3021 9.93534C51.3607 10.2287 52.2152 10.522 52.8784 10.8026C53.5416 11.096 54.1156 11.5424 54.5747 12.1418C55.0466 12.7412 55.2762 13.5575 55.2762 14.5651C55.2762 15.3813 55.0594 16.1466 54.6257 16.8608C54.1921 17.575 53.5544 18.1617 52.7254 18.5954C51.8964 19.029 50.9015 19.2458 49.7792 19.2458C48.7078 19.2458 47.7385 19.0545 46.884 18.6846Z" fill="#29313D" fill-opacity="0.8"/>
<path d="M62.8138 6.82332C63.5791 6.42794 64.4464 6.22388 65.4029 6.22388C66.4998 6.22388 67.5074 6.49171 68.4256 7.04014C69.3312 7.58856 70.0454 8.34106 70.5683 9.32312C71.0913 10.3052 71.3463 11.4275 71.3463 12.703C71.3463 13.9784 71.0913 15.1135 70.5683 16.1083C70.0454 17.1159 69.3312 17.8939 68.4256 18.455C67.5201 19.0162 66.5125 19.2968 65.4029 19.2968C64.4336 19.2968 63.5791 19.1055 62.8266 18.7101C62.0741 18.3148 61.4619 17.8301 60.99 17.2562V25.1127H58.3754V6.42794H60.99V8.29004C61.4492 7.70335 62.0486 7.2187 62.8138 6.82332ZM68.1578 10.4327C67.8007 9.79502 67.3288 9.31037 66.7294 8.99151C66.1427 8.65991 65.505 8.4941 64.8417 8.4941C64.1785 8.4941 63.5536 8.65991 62.9669 9.00427C62.3802 9.34863 61.9083 9.83328 61.5384 10.471C61.1813 11.1087 61.0028 11.8739 61.0028 12.7412C61.0028 13.6085 61.1813 14.3737 61.5384 15.0242C61.8956 15.6747 62.3675 16.1721 62.9669 16.5037C63.5536 16.8353 64.1785 17.0138 64.8417 17.0138C65.5177 17.0138 66.1427 16.848 66.7294 16.5037C67.316 16.1593 67.7879 15.6619 68.1578 14.9987C68.5149 14.3355 68.6935 13.5702 68.6935 12.703C68.6935 11.8357 68.5149 11.0704 68.1578 10.4327Z" fill="#29313D" fill-opacity="0.8"/>
<path d="M74.0885 4.27256C73.7696 3.95371 73.6038 3.55833 73.6038 3.07368C73.6038 2.58902 73.7696 2.2064 74.0885 1.87479C74.4073 1.54319 74.8027 1.39014 75.2874 1.39014C75.7465 1.39014 76.1419 1.55594 76.4607 1.87479C76.7796 2.19364 76.9454 2.58902 76.9454 3.07368C76.9454 3.55833 76.7796 3.95371 76.4607 4.27256C76.1419 4.59141 75.7465 4.75721 75.2874 4.75721C74.8155 4.75721 74.4073 4.59141 74.0885 4.27256ZM76.5755 6.428V19.0801H73.9609V6.428H76.5755Z" fill="#29313D" fill-opacity="0.8"/>
<path d="M79.9298 9.32312C80.4528 8.34105 81.1798 7.57581 82.0853 7.04014C82.9908 6.50447 84.0112 6.22388 85.1208 6.22388C85.9498 6.22388 86.766 6.40243 87.5696 6.75955C88.3731 7.11666 89.0108 7.60132 89.4827 8.18801V2.09155H92.1228V19.08H89.4827V17.1796C89.049 17.7918 88.4623 18.302 87.6971 18.6974C86.9446 19.0927 86.0646 19.2968 85.0953 19.2968C83.9984 19.2968 82.9908 19.0162 82.0725 18.455C81.167 17.8939 80.44 17.1159 79.9171 16.1083C79.3942 15.1007 79.1263 13.9656 79.1263 12.703C79.1263 11.4403 79.4069 10.3052 79.9298 9.32312ZM88.9597 10.471C88.6026 9.83328 88.1307 9.33587 87.544 9.00427C86.9574 8.67266 86.3324 8.4941 85.6564 8.4941C84.9805 8.4941 84.3555 8.65991 83.7688 8.99151C83.1821 9.32312 82.723 9.80777 82.3531 10.4327C81.996 11.0704 81.8175 11.8229 81.8175 12.6902C81.8175 13.5575 81.996 14.3227 82.3531 14.9859C82.7102 15.6491 83.1821 16.1466 83.7816 16.4909C84.381 16.8353 84.9932 17.0011 85.6564 17.0011C86.3324 17.0011 86.9574 16.8353 87.544 16.4909C88.1307 16.1593 88.6026 15.6619 88.9597 15.0114C89.3169 14.361 89.4954 13.5957 89.4954 12.7285C89.4954 11.8739 89.3169 11.1087 88.9597 10.471Z" fill="#29313D" fill-opacity="0.8"/>
<path d="M107.083 13.736H97.4157C97.4922 14.7436 97.8621 15.5599 98.538 16.1721C99.214 16.7843 100.043 17.0904 101.012 17.0904C102.415 17.0904 103.41 16.5037 103.997 15.3175H106.815C106.433 16.4782 105.744 17.4347 104.737 18.1745C103.729 18.9142 102.492 19.2841 101.012 19.2841C99.8007 19.2841 98.7166 19.0162 97.76 18.4678C96.8035 17.9194 96.051 17.1541 95.5153 16.1721C94.9669 15.19 94.6991 14.0421 94.6991 12.7412C94.6991 11.4403 94.9669 10.2924 95.4898 9.31037C96.0127 8.3283 96.7652 7.56306 97.7218 7.02738C98.6783 6.49171 99.7752 6.22388 101.012 6.22388C102.211 6.22388 103.27 6.47896 104.201 7.00188C105.132 7.52479 105.859 8.25178 106.382 9.19558C106.905 10.1394 107.16 11.2235 107.16 12.4479C107.173 12.9198 107.147 13.3534 107.083 13.736ZM104.443 11.6189C104.43 10.6495 104.086 9.8843 103.41 9.29761C102.734 8.71092 101.905 8.43033 100.91 8.43033C100.005 8.43033 99.2395 8.72368 98.5891 9.29761C97.9514 9.87155 97.5687 10.6495 97.4412 11.6316H104.443V11.6189Z" fill="#29313D" fill-opacity="0.8"/>
<path d="M113.894 6.75955C114.532 6.40243 115.284 6.22388 116.151 6.22388V8.92774H115.488C114.468 8.92774 113.69 9.18282 113.154 9.70574C112.631 10.2287 112.363 11.1342 112.363 12.4096V19.0672H109.749V6.42794H112.363V8.26453C112.746 7.62683 113.256 7.12942 113.894 6.75955Z" fill="#29313D" fill-opacity="0.8"/>
<path d="M120.475 18.7484C119.684 18.3913 119.059 17.8939 118.6 17.2817C118.141 16.6567 117.899 15.968 117.861 15.2028H120.564C120.615 15.7384 120.87 16.1848 121.33 16.5419C121.802 16.899 122.375 17.0776 123.09 17.0776C123.829 17.0776 124.391 16.9373 124.799 16.6567C125.207 16.3761 125.411 16.0063 125.411 15.5726C125.411 15.1007 125.181 14.7436 124.735 14.514C124.289 14.2845 123.562 14.0294 122.592 13.7615C121.648 13.5065 120.87 13.2514 120.271 13.009C119.672 12.7667 119.161 12.3841 118.715 11.8867C118.281 11.3765 118.065 10.7133 118.065 9.8843C118.065 9.20833 118.269 8.59614 118.664 8.03496C119.059 7.47378 119.633 7.04014 120.373 6.70853C121.113 6.37693 121.967 6.22388 122.937 6.22388C124.378 6.22388 125.538 6.59375 126.418 7.30797C127.299 8.03496 127.77 9.02978 127.834 10.2797H125.22C125.169 9.7185 124.939 9.25935 124.531 8.92774C124.123 8.59614 123.562 8.41758 122.86 8.41758C122.171 8.41758 121.648 8.54512 121.279 8.81296C120.909 9.08079 120.73 9.4124 120.73 9.84604C120.73 10.1776 120.858 10.471 121.1 10.7006C121.342 10.9301 121.648 11.1087 121.993 11.2362C122.35 11.3638 122.86 11.5296 123.549 11.7336C124.467 11.976 125.22 12.2311 125.806 12.4734C126.393 12.7285 126.903 13.0983 127.337 13.583C127.77 14.0676 127.987 14.7181 128 15.5344C128 16.2486 127.796 16.899 127.401 17.4602C127.005 18.0214 126.444 18.4678 125.717 18.7866C124.99 19.1055 124.136 19.2713 123.153 19.2713C122.159 19.2841 121.266 19.1055 120.475 18.7484Z" fill="#29313D" fill-opacity="0.8"/>
</g>
<defs>
<clipPath id="clip0_0_965">
<rect width="128" height="26.3244" fill="white"/>
</clipPath>
</defs>
</svg>
