<svg width="140" height="24" viewBox="0 0 140 24" fill="none" xmlns="http://www.w3.org/2000/svg">
<g clip-path="url(#clip0_0_951)">
<path fill-rule="evenodd" clip-rule="evenodd" d="M5.32514 12.4461L10.4507 7.3205V6.82166H6.248L7.03367 8.18101L4.38981 10.8373L0 3.21753H14.0673V8.81703L9.83966 13.0447L10.775 14.6535L14.9653 10.4507V10.4757V10.4507L19.168 14.6535L20.1033 13.0447L15.8756 8.81703V3.21753H29.9305L25.5407 10.8373L22.8968 8.19348L23.6825 6.83413H19.4798V7.33298L24.6054 12.4586C23.059 15.1399 21.5001 17.8336 19.9537 20.5149L14.9653 15.5763L9.97684 20.5024C8.43043 17.8211 6.88402 15.1399 5.32514 12.4461Z" fill="#29313D" fill-opacity="0.8"/>
<path d="M60.6467 1.93311L56.2694 17.5967H52.5655L49.6223 6.43515L46.5419 17.5967L42.863 17.6217L38.6478 1.93311H42.0149L44.7711 14.1049L47.9636 1.93311H51.468L54.4735 14.03L57.2546 1.93311H60.6467Z" fill="#29313D" fill-opacity="0.8"/>
<path d="M62.9039 3.15518C62.5298 2.80599 62.3552 2.3695 62.3552 1.84572C62.3552 1.32193 62.5423 0.885445 62.9039 0.536255C63.2656 0.174595 63.727 0 64.2758 0C64.8245 0 65.2859 0.174595 65.6601 0.523784C66.0217 0.872974 66.2088 1.30946 66.2088 1.83324C66.2088 2.35703 66.0217 2.79352 65.6601 3.1427C65.2984 3.49189 64.837 3.66649 64.2758 3.66649C63.727 3.67896 63.2656 3.50436 62.9039 3.15518ZM65.8347 5.16301V17.5967H62.6919V5.16301H65.8347Z" fill="#29313D" fill-opacity="0.8"/>
<path d="M68.8651 7.99384C69.3639 7.0211 70.0498 6.27283 70.9228 5.74905C71.7958 5.22526 72.7561 4.96337 73.8161 4.96337C74.6267 4.96337 75.3999 5.13797 76.1232 5.48716C76.859 5.83635 77.4452 6.31025 77.8692 6.88391V0.985107H81.0618V17.5965H77.8692V15.7508C77.4826 16.3619 76.9339 16.8608 76.2355 17.2349C75.5371 17.609 74.714 17.7961 73.7911 17.7961C72.7436 17.7961 71.7833 17.5217 70.9228 16.9855C70.0498 16.4492 69.3639 15.6885 68.8651 14.7033C68.3662 13.718 68.1168 12.5957 68.1168 11.3236C68.1168 10.0765 68.3662 8.96658 68.8651 7.99384ZM77.4576 9.41554C77.1583 8.86681 76.7593 8.45527 76.2479 8.15596C75.7366 7.86913 75.1879 7.71947 74.6142 7.71947C74.0281 7.71947 73.4918 7.85666 72.993 8.14349C72.4942 8.43032 72.0951 8.84187 71.7958 9.3906C71.484 9.93932 71.3344 10.5878 71.3344 11.3361C71.3344 12.0843 71.484 12.7328 71.7958 13.3065C72.1076 13.8677 72.5066 14.2917 73.0055 14.591C73.5043 14.8903 74.0406 15.04 74.6142 15.04C75.2004 15.04 75.7491 14.8903 76.2479 14.6035C76.7593 14.3167 77.1583 13.8926 77.4576 13.3439C77.7569 12.7952 77.9066 12.1467 77.9066 11.386C77.9066 10.6128 77.7569 9.96426 77.4576 9.41554Z" fill="#29313D" fill-opacity="0.8"/>
<path d="M95.6155 12.3213H86.5241C86.5989 13.2192 86.9107 13.9176 87.4719 14.4289C88.0206 14.9402 88.7065 15.1897 89.5172 15.1897C90.6894 15.1897 91.5125 14.6908 92.0114 13.6807H95.4035C95.0418 14.8779 94.3559 15.8631 93.3333 16.6363C92.3107 17.4095 91.0636 17.7961 89.5795 17.7961C88.3823 17.7961 87.3098 17.5342 86.362 16.998C85.4142 16.4617 84.6659 15.7134 84.1421 14.7407C83.6059 13.768 83.344 12.6456 83.344 11.3735C83.344 10.089 83.6059 8.95413 84.1297 7.98139C84.6535 7.00865 85.3892 6.26039 86.3246 5.7366C87.2724 5.21282 88.3574 4.95093 89.5795 4.95093C90.7643 4.95093 91.8243 5.20035 92.7596 5.71166C93.695 6.22297 94.4183 6.9463 94.9421 7.88162C95.4534 8.81695 95.7153 9.88946 95.7153 11.0992C95.7028 11.5606 95.6779 11.9597 95.6155 12.3213ZM92.4479 10.2137C92.4354 9.40309 92.1361 8.7546 91.5749 8.26823C91.0012 7.78186 90.3153 7.54491 89.4922 7.54491C88.719 7.54491 88.0581 7.78186 87.5343 8.25576C86.998 8.72966 86.6738 9.37815 86.5615 10.2262H92.4479V10.2137Z" fill="#29313D" fill-opacity="0.8"/>
<path d="M105.318 5.51212C106.016 5.87379 106.578 6.34768 106.977 6.93382V5.16294H110.144V17.6839C110.144 18.8312 109.907 19.8663 109.446 20.7767C108.985 21.6871 108.286 22.3979 107.363 22.9342C106.44 23.4704 105.318 23.7323 103.996 23.7323C102.225 23.7323 100.779 23.3208 99.6562 22.4977C98.5213 21.6746 97.8853 20.5522 97.7356 19.1305H100.853C101.016 19.7042 101.377 20.1531 101.913 20.4899C102.45 20.8266 103.123 20.9887 103.896 20.9887C104.807 20.9887 105.555 20.7143 106.116 20.1656C106.677 19.6169 106.964 18.7938 106.964 17.6839V15.7509C106.565 16.337 106.004 16.8234 105.293 17.21C104.582 17.5966 103.772 17.7961 102.861 17.7961C101.814 17.7961 100.853 17.5217 99.9929 16.9855C99.1199 16.4492 98.434 15.6885 97.9352 14.7033C97.4363 13.7181 97.1869 12.5957 97.1869 11.3236C97.1869 10.0641 97.4363 8.95413 97.9352 7.98139C98.434 7.00865 99.1199 6.26039 99.9804 5.7366C100.841 5.21282 101.801 4.95093 102.861 4.95093C103.797 4.9634 104.607 5.13799 105.318 5.51212ZM106.528 9.41556C106.228 8.86684 105.829 8.45529 105.318 8.15599C104.807 7.86915 104.258 7.7195 103.684 7.7195C103.098 7.7195 102.562 7.85668 102.063 8.14352C101.564 8.43035 101.165 8.84189 100.866 9.39062C100.554 9.93935 100.404 10.5878 100.404 11.3361C100.404 12.0844 100.554 12.7329 100.866 13.3065C101.178 13.8677 101.577 14.2917 102.076 14.591C102.574 14.8904 103.111 15.04 103.684 15.04C104.27 15.04 104.819 14.8904 105.318 14.6035C105.829 14.3167 106.228 13.8927 106.528 13.3439C106.827 12.7952 106.977 12.1467 106.977 11.386C106.977 10.6128 106.827 9.96429 106.528 9.41556Z" fill="#29313D" fill-opacity="0.8"/>
<path d="M113.162 7.99384C113.661 7.0211 114.347 6.27283 115.22 5.74905C116.093 5.22526 117.053 4.96337 118.113 4.96337C118.924 4.96337 119.697 5.13797 120.42 5.48716C121.156 5.83635 121.742 6.31025 122.166 6.88391V0.985107H125.359V17.5965H122.166V15.7508C121.78 16.3619 121.231 16.8608 120.533 17.2349C119.834 17.609 119.011 17.7961 118.088 17.7961C117.041 17.7961 116.08 17.5217 115.22 16.9855C114.347 16.4492 113.661 15.6885 113.162 14.7033C112.663 13.718 112.414 12.5957 112.414 11.3236C112.414 10.0765 112.663 8.96658 113.162 7.99384ZM121.742 9.41554C121.443 8.86681 121.044 8.45527 120.533 8.15596C120.021 7.86913 119.473 7.71947 118.899 7.71947C118.313 7.71947 117.777 7.85666 117.278 8.14349C116.779 8.43032 116.38 8.84187 116.08 9.3906C115.769 9.93932 115.619 10.5878 115.619 11.3361C115.619 12.0843 115.769 12.7328 116.08 13.3065C116.392 13.8677 116.791 14.2917 117.29 14.591C117.789 14.8903 118.325 15.04 118.899 15.04C119.485 15.04 120.034 14.8903 120.533 14.6035C121.044 14.3167 121.443 13.8926 121.742 13.3439C122.042 12.7952 122.191 12.1467 122.191 11.386C122.191 10.6128 122.042 9.96426 121.742 9.41554Z" fill="#29313D" fill-opacity="0.8"/>
<path d="M139.913 12.3213H130.821C130.896 13.2192 131.208 13.9176 131.769 14.4289C132.318 14.9402 133.004 15.1897 133.814 15.1897C134.987 15.1897 135.81 14.6908 136.309 13.6807H139.701C139.339 14.8779 138.653 15.8631 137.63 16.6363C136.608 17.4095 135.361 17.7961 133.877 17.7961C132.679 17.7961 131.607 17.5342 130.659 16.998C129.711 16.4617 128.963 15.7134 128.439 14.7407C127.903 13.768 127.641 12.6456 127.641 11.3735C127.641 10.089 127.903 8.95413 128.427 7.98139C128.951 7.00865 129.686 6.26039 130.622 5.7366C131.57 5.21282 132.655 4.95093 133.877 4.95093C135.061 4.95093 136.121 5.20035 137.057 5.71166C137.992 6.22297 138.715 6.9463 139.239 7.88162C139.751 8.81695 140.012 9.88946 140.012 11.0992C140 11.5606 139.963 11.9597 139.913 12.3213ZM136.745 10.2137C136.733 9.40309 136.433 8.7546 135.872 8.26823C135.298 7.78186 134.612 7.54491 133.789 7.54491C133.016 7.54491 132.355 7.78186 131.831 8.25576C131.295 8.72966 130.971 9.37815 130.859 10.2262H136.745V10.2137Z" fill="#29313D" fill-opacity="0.8"/>
</g>
<defs>
<clipPath id="clip0_0_951">
<rect width="140" height="23.7324" fill="white"/>
</clipPath>
</defs>
</svg>
