<svg width="70" height="70" viewBox="0 0 70 70" fill="none" xmlns="http://www.w3.org/2000/svg">
<rect width="70" height="70" rx="14" fill="#6078FF" fill-opacity="0.15"/>
<path d="M36.1 29.5C36.1 28.8925 35.6075 28.4 35 28.4C34.3925 28.4 33.9 28.8925 33.9 29.5H36.1ZM31.1996 39.4274C30.7829 39.8694 30.8034 40.5656 31.2454 40.9823C31.6874 41.3991 32.3836 41.3786 32.8004 40.9366L31.1996 39.4274ZM20.8128 21.141C20.3384 21.5206 20.2615 22.2128 20.641 22.6872C21.0206 23.1616 21.7128 23.2385 22.1872 22.859L20.8128 21.141ZM25.9372 19.859C26.4116 19.4794 26.4885 18.7872 26.109 18.3128C25.7294 17.8384 25.0372 17.7615 24.5628 18.141L25.9372 19.859ZM47.8128 22.859C48.2872 23.2385 48.9794 23.1616 49.359 22.6872C49.7385 22.2128 49.6616 21.5206 49.1872 21.141L47.8128 22.859ZM45.4372 18.141C44.9628 17.7615 44.2706 17.8384 43.891 18.3128C43.5115 18.7872 43.5884 19.4794 44.0628 19.859L45.4372 18.141ZM34.4552 37.5778L35.2556 38.3324L34.4552 37.5778ZM33.9 29.5V36.2058H36.1V29.5H33.9ZM32.8004 40.9366L35.2556 38.3324L33.6549 36.8232L31.1996 39.4274L32.8004 40.9366ZM22.1872 22.859L25.9372 19.859L24.5628 18.141L20.8128 21.141L22.1872 22.859ZM49.1872 21.141L45.4372 18.141L44.0628 19.859L47.8128 22.859L49.1872 21.141ZM48.9 35.5C48.9 43.1768 42.6768 49.4 35 49.4V51.6C43.8918 51.6 51.1 44.3918 51.1 35.5H48.9ZM35 49.4C27.3232 49.4 21.1 43.1768 21.1 35.5H18.9C18.9 44.3918 26.1082 51.6 35 51.6V49.4ZM21.1 35.5C21.1 27.8232 27.3232 21.6 35 21.6V19.4C26.1082 19.4 18.9 26.6082 18.9 35.5H21.1ZM35 21.6C42.6768 21.6 48.9 27.8232 48.9 35.5H51.1C51.1 26.6082 43.8918 19.4 35 19.4V21.6ZM33.9 36.2058C33.9 36.4354 33.8123 36.6562 33.6549 36.8232L35.2556 38.3324C35.7979 37.7572 36.1 36.9964 36.1 36.2058H33.9Z" fill="#6078FF"/>
</svg>
