<svg width="70" height="70" viewBox="0 0 70 70" fill="none" xmlns="http://www.w3.org/2000/svg">
<rect width="70" height="70" rx="14" fill="#0D87E7" fill-opacity="0.15"/>
<path d="M36.1 29.375C36.1 28.7675 35.6075 28.275 35 28.275C34.3925 28.275 33.9 28.7675 33.9 29.375H36.1ZM38.3472 40.0776C38.8734 40.3814 39.5461 40.2011 39.8499 39.675C40.1536 39.1489 39.9733 38.4761 39.4472 38.1724L38.3472 40.0776ZM20.8128 21.391C20.3384 21.7706 20.2615 22.4628 20.641 22.9372C21.0206 23.4116 21.7128 23.4885 22.1872 23.109L20.8128 21.391ZM25.9372 20.109C26.4116 19.7294 26.4885 19.0372 26.109 18.5628C25.7294 18.0884 25.0372 18.0115 24.5628 18.391L25.9372 20.109ZM47.8128 23.109C48.2872 23.4885 48.9794 23.4116 49.359 22.9372C49.7385 22.4628 49.6616 21.7706 49.1872 21.391L47.8128 23.109ZM45.4372 18.391C44.9628 18.0115 44.2706 18.0884 43.891 18.5628C43.5115 19.0372 43.5884 19.7294 44.0628 20.109L45.4372 18.391ZM37 38.0297L36.4501 38.9823L37 38.0297ZM35.268 36.7203L34.3153 37.2703L35.268 36.7203ZM33.9 29.375L33.9 34.5656L36.1 34.5656V29.375H33.9ZM39.4472 38.1724L37.55 37.0771L36.4501 38.9823L38.3472 40.0776L39.4472 38.1724ZM48.9 35.375C48.9 43.0518 42.6768 49.275 35 49.275V51.475C43.8918 51.475 51.1 44.2668 51.1 35.375H48.9ZM35 49.275C27.3232 49.275 21.1 43.0518 21.1 35.375H18.9C18.9 44.2668 26.1082 51.475 35 51.475V49.275ZM21.1 35.375C21.1 27.6982 27.3232 21.475 35 21.475V19.275C26.1082 19.275 18.9 26.4832 18.9 35.375H21.1ZM35 21.475C42.6768 21.475 48.9 27.6982 48.9 35.375H51.1C51.1 26.4832 43.8918 19.275 35 19.275V21.475ZM22.1872 23.109L25.9372 20.109L24.5628 18.391L20.8128 21.391L22.1872 23.109ZM49.1872 21.391L45.4372 18.391L44.0628 20.109L47.8128 23.109L49.1872 21.391ZM33.9 34.5656C33.9 35.1077 33.8988 35.5934 33.9388 35.9995C33.9812 36.4296 34.0758 36.8554 34.3153 37.2703L36.2206 36.1703C36.1922 36.1211 36.1528 36.033 36.1282 35.7836C36.1012 35.5102 36.1 35.1505 36.1 34.5656L33.9 34.5656ZM37.55 37.0771C37.0435 36.7846 36.7326 36.6037 36.5092 36.4436C36.3056 36.2976 36.249 36.2195 36.2206 36.1703L34.3153 37.2703C34.5549 37.6852 34.8763 37.98 35.2277 38.2318C35.5593 38.4695 35.9805 38.7113 36.4501 38.9823L37.55 37.0771Z" fill="#0D87E7"/>
</svg>
