<svg width="36" height="36" viewBox="0 0 36 36" fill="none" xmlns="http://www.w3.org/2000/svg">
<circle cx="18" cy="18" r="17.5" stroke="#8454F5"/>
<path d="M24.9858 13.762C24.4848 13.984 23.9466 14.134 23.3808 14.2018C23.9646 13.8524 24.4014 13.3026 24.6096 12.655C24.0611 12.9807 23.4608 13.2101 22.8348 13.333C22.4138 12.8835 21.8562 12.5855 21.2486 12.4854C20.6409 12.3853 20.0172 12.4886 19.4743 12.7793C18.9314 13.07 18.4997 13.5318 18.2461 14.093C17.9925 14.6542 17.9313 15.2834 18.072 15.883C16.9606 15.8272 15.8734 15.5383 14.8808 15.0351C13.8883 14.5319 13.0127 13.8257 12.3108 12.9622C12.0708 13.3762 11.9328 13.8562 11.9328 14.3674C11.9325 14.8276 12.0458 15.2807 12.2627 15.6866C12.4796 16.0925 12.7933 16.4386 13.176 16.6942C12.7322 16.68 12.2981 16.5601 11.91 16.3444V16.3804C11.9099 17.0258 12.1332 17.6514 12.5419 18.151C12.9506 18.6505 13.5195 18.9933 14.1522 19.1212C13.7405 19.2326 13.3088 19.249 12.8898 19.1692C13.0683 19.7245 13.416 20.2102 13.8842 20.5581C14.3524 20.906 14.9177 21.0989 15.501 21.1096C14.5109 21.8868 13.2881 22.3084 12.0294 22.3066C11.8064 22.3066 11.5836 22.2936 11.3622 22.2676C12.6399 23.0891 14.1272 23.525 15.6462 23.5234C20.7882 23.5234 23.5992 19.2646 23.5992 15.571C23.5992 15.451 23.5962 15.3298 23.5908 15.2098C24.1376 14.8143 24.6095 14.3247 24.9846 13.7638L24.9858 13.762Z" fill="#8454F5"/>
</svg>
