<svg width="36" height="36" viewBox="0 0 36 36" fill="none" xmlns="http://www.w3.org/2000/svg">
<circle cx="18" cy="18" r="18" fill="#8454F5"/>
<g clip-path="url(#clip0_0_125)">
<path d="M24.9 14.704C24.8185 14.4131 24.6597 14.1498 24.4404 13.942C24.215 13.7278 23.9387 13.5745 23.6376 13.4968C22.5108 13.1998 17.9964 13.1998 17.9964 13.1998C16.1144 13.1783 14.2329 13.2725 12.3625 13.4818C12.0614 13.5653 11.7856 13.7219 11.5597 13.9378C11.3377 14.1514 11.1769 14.4148 11.0929 14.7034C10.8911 15.7904 10.793 16.8942 10.8001 17.9998C10.7929 19.1044 10.8907 20.2078 11.0929 21.2962C11.1751 21.5836 11.3353 21.8458 11.5579 22.0576C11.7805 22.2694 12.0577 22.4224 12.3625 22.5034C13.5043 22.7998 17.9964 22.7998 17.9964 22.7998C19.8808 22.8212 21.7648 22.727 23.6376 22.5178C23.9387 22.44 24.215 22.2868 24.4404 22.0726C24.6624 21.8608 24.8202 21.5974 24.8994 21.3106C25.1065 20.2239 25.2072 19.1197 25.2 18.0136C25.2156 16.9027 25.1151 15.7933 24.9 14.7034V14.704ZM16.5613 20.0542V15.946L20.3172 18.0004L16.5613 20.0542Z" fill="white"/>
</g>
<defs>
<clipPath id="clip0_0_125">
<rect width="14.4" height="14.4" fill="white" transform="translate(10.8 10.7998)"/>
</clipPath>
</defs>
</svg>
